<svg id="visual" viewBox="0 0 960 540" width="960" height="540" xmlns="http://www.w3.org/2000/svg" xmlns:xlink="http://www.w3.org/1999/xlink" version="1.1"><rect x="0" y="0" width="960" height="540" fill="#002233"></rect><path d="M0 415L22.8 420.7C45.7 426.3 91.3 437.7 137 445.5C182.7 453.3 228.3 457.7 274 448.2C319.7 438.7 365.3 415.3 411.2 414.8C457 414.3 503 436.7 548.8 445.3C594.7 454 640.3 449 686 445.5C731.7 442 777.3 440 823 422.2C868.7 404.3 914.3 370.7 937.2 353.8L960 337L960 541L937.2 541C914.3 541 868.7 541 823 541C777.3 541 731.7 541 686 541C640.3 541 594.7 541 548.8 541C503 541 457 541 411.2 541C365.3 541 319.7 541 274 541C228.3 541 182.7 541 137 541C91.3 541 45.7 541 22.8 541L0 541Z" fill="#0066FF" stroke-linecap="round" stroke-linejoin="miter"></path></svg>